<svg xmlns="http://www.w3.org/2000/svg" width="104" height="24" fill="none"><path fill="#003594" fill-rule="evenodd" d="M33.633 7.442v1.053h-6.497V1.122c0-.394.321-.715.716-.715h5.066c.395 0 .715.32.715.715v1.053h-4.23v1.363h2.878c.395 0 .716.32.716.716v.995h-3.594v1.479h3.515c.395 0 .715.32.715.714ZM58.62 7.442v1.053h-6.496V1.122c0-.394.32-.715.716-.715h5.065c.395 0 .715.32.715.715v1.053h-4.23v1.363h2.879c.395 0 .716.32.716.716v.995h-3.596v1.479h3.516c.395 0 .715.32.715.714ZM35.837 7.67c-.666-.654-.999-1.582-.999-2.783V.407h1.572c.394 0 .713.32.713.715v3.696c0 1.293.513 1.94 1.536 1.94 1.016 0 1.523-.647 1.523-1.94V1.122c0-.395.32-.715.714-.715h1.537v4.48c0 1.201-.333 2.129-.998 2.783-.666.654-1.6.982-2.8.982-1.2 0-2.133-.328-2.798-.982ZM48.264 2.512c-.239-.208-.593-.312-1.063-.312H45.93V4.57H47.2c.47 0 .824-.102 1.063-.307.239-.203.358-.494.358-.872 0-.377-.12-.67-.358-.878ZM47.18 6.346h-1.247V7.78c0 .395-.32.715-.715.715h-1.573V1.122c0-.395.32-.715.714-.715h2.983c.732 0 1.367.122 1.906.364.54.243.956.59 1.248 1.04.293.45.44.98.44 1.589 0 .585-.137 1.095-.41 1.53-.274.436-.666.777-1.174 1.023l1.745 2.542h-2.45l-1.467-2.15ZM62.969 5.56l-.856.913v1.308c0 .394-.32.714-.715.714h-1.55V1.122c0-.394.32-.715.715-.715h1.55V3.77L65.244.407h2.519L64.458 3.99l3.479 4.506h-2.658L62.97 5.56ZM73.933 5.246l-1.039-2.588-1.04 2.588h2.08Zm.663 1.678h-3.419l-.455 1.124a.716.716 0 0 1-.663.447h-1.852L71.59.834a.716.716 0 0 1 .654-.427h1.787l3.582 8.088h-1.898a.715.715 0 0 1-.663-.447l-.455-1.124ZM23.384 9.3h-7.106c-1.424 0-2.582 1.133-2.582 2.527v2.033h-.003l.002 8.356H9.808V13.73h-8.67V9.928l8.024-.003h2.617v-.002c1.411-.015 2.555-1.142 2.555-2.526V.439H9.17L9.162 8.81 0 8.814v6.033l8.665.003-.008 8.481h6.177l-.002-8.976h8.552V9.299ZM30.336 13.024v2.901h4.813c.56 0 1.015.454 1.015 1.014v1.869h-5.828v3.507c0 .56-.454 1.014-1.015 1.014H26.6V11.153c0-.558.454-1.011 1.013-1.011h8.327c.56 0 1.015.454 1.015 1.014v1.868h-6.62ZM46.647 20.025c.54-.314.968-.757 1.282-1.33.314-.57.471-1.227.471-1.969 0-.74-.157-1.397-.47-1.97a3.39 3.39 0 0 0-1.283-1.328 3.537 3.537 0 0 0-1.809-.471c-.666 0-1.269.157-1.81.471-.54.314-.967.757-1.28 1.329-.315.572-.472 1.228-.472 1.97 0 .74.157 1.397.471 1.969a3.383 3.383 0 0 0 1.282 1.329c.54.314 1.143.47 1.81.47.665 0 1.268-.156 1.808-.47Zm-5.565 2.682a6.654 6.654 0 0 1-2.62-2.45c-.634-1.043-.951-2.218-.951-3.525 0-1.306.317-2.481.951-3.524a6.659 6.659 0 0 1 2.62-2.45c1.112-.59 2.365-.886 3.76-.886 1.395 0 2.648.295 3.76.886a6.658 6.658 0 0 1 2.62 2.45c.635 1.043.952 2.217.952 3.524s-.317 2.482-.952 3.525a6.653 6.653 0 0 1-2.62 2.45c-1.111.59-2.365.886-3.76.886-1.395 0-2.648-.296-3.76-.886ZM61.062 13.578c-.39-.339-.967-.508-1.734-.508h-2.072v3.863h2.072c.767 0 1.345-.166 1.734-.5.39-.332.585-.806.585-1.422 0-.616-.195-1.093-.585-1.433Zm-1.767 6.247H57.26v2.491c0 .56-.454 1.015-1.014 1.015h-2.718V11.15c0-.56.455-1.014 1.015-1.014h5.017c1.193 0 2.229.198 3.109.594.879.396 1.558.961 2.035 1.696.478.735.716 1.6.716 2.592 0 .955-.223 1.787-.669 2.497-.446.71-1.083 1.266-1.912 1.668l2.845 4.146H61.69l-2.394-3.505ZM75.783 19.293c0-.892-.653-1.338-1.96-1.338h-3.128v2.676h3.128c1.307 0 1.96-.446 1.96-1.338Zm-5.088-6.459v2.545h2.563c1.256 0 1.885-.427 1.885-1.282 0-.841-.629-1.263-1.885-1.263h-2.563Zm8.216 4.852c.427.559.64 1.234.64 2.026 0 1.156-.465 2.048-1.394 2.676-.93.629-2.274.942-4.034.942H67V11.152c0-.56.454-1.015 1.015-1.015h5.732c1.684 0 2.966.311 3.845.933.88.622 1.32 1.46 1.32 2.516 0 .629-.154 1.191-.462 1.687a3.229 3.229 0 0 1-1.31 1.178c.754.264 1.344.676 1.772 1.235ZM91.482 21.46v1.869h-10.6V11.156c0-.56.455-1.014 1.015-1.014h8.57c.56 0 1.015.454 1.015 1.014v1.868h-6.904v2.223h4.85c.562 0 1.017.454 1.017 1.014v1.774h-5.867v2.412h5.888c.56 0 1.016.454 1.016 1.014ZM95.053 23.193c-1.005-.264-1.82-.615-2.448-1.055l.774-1.74a1.02 1.02 0 0 1 1.37-.499c.353.164.73.308 1.133.43a7.813 7.813 0 0 0 2.298.359c1.432 0 2.147-.358 2.147-1.074 0-.377-.204-.656-.612-.838-.409-.182-1.064-.374-1.969-.575-.992-.213-1.82-.442-2.486-.688a4.18 4.18 0 0 1-1.714-1.177c-.478-.54-.716-1.268-.716-2.185 0-.804.22-1.529.66-2.176.439-.647 1.095-1.159 1.968-1.535.872-.377 1.943-.566 3.212-.566.867 0 1.72.098 2.562.292.841.195 1.581.48 2.222.858l-.741 1.786c-.215.516-.806.76-1.323.546-.934-.387-1.848-.58-2.74-.58-.74 0-1.28.11-1.62.33-.338.219-.508.505-.508.857 0 .351.2.615.603.79.402.177 1.048.358 1.94.547 1.004.214 1.836.443 2.496.688.659.245 1.23.634 1.714 1.168.483.534.725 1.259.725 2.175 0 .792-.22 1.508-.659 2.148-.44.64-1.099 1.152-1.978 1.535s-1.946.575-3.202.575c-1.067 0-2.103-.132-3.108-.396Z" clip-rule="evenodd"></path></svg>