<svg width="215" height="64" viewBox="0 0 215 64" fill="none" xmlns="http://www.w3.org/2000/svg">
<path d="M33.9377 6.23076C30.7338 5.12718 27.1994 4.52071 23.7743 4.52071C11.5678 4.52071 2.01331 14.2417 2.01331 26.3911C2.01331 38.2645 11.2919 47.4884 23.1653 47.4884C25.8721 47.4884 31.5068 46.9913 33.9352 45.833L34.3776 30.2561C31.9468 32.6323 29.1853 34.1211 25.7056 34.1211C21.1769 34.1211 17.2547 30.5867 17.2547 26.0033C17.2547 21.4746 20.9557 17.883 25.4843 17.883C28.9094 17.883 31.9468 19.8168 34.3776 22.0811L33.9377 6.23076ZM70.2242 34.566C70.9426 23.5749 62.7129 16.8366 52.2736 16.8366C42.9379 16.8366 35.4265 22.9113 35.4265 32.6323C35.4265 42.7385 43.8774 47.4884 53.1013 47.4884C59.8396 47.4884 67.7387 44.2298 69.6153 37.1609H55.7534C55.475 38.5404 54.3714 39.5893 52.8801 39.5893C49.8974 39.5893 49.5121 36.9372 49.5121 34.5635H70.2242V34.566ZM49.5121 28.4913C49.5121 26.4457 50.5611 24.681 52.716 24.681C54.7591 24.681 56.1958 26.5029 56.1958 28.4913H49.5121ZM84.9163 17.5002H70.9997V46.8272H85.2494V32.5229C85.2494 30.8104 85.2494 28.3795 87.6231 28.3795C90.0539 28.3795 90.0539 30.8104 90.0539 32.5229V46.8272H104.304V28.7672C104.304 22.3048 101.433 16.8366 94.1402 16.8366C89.5568 16.8366 87.4565 18.9916 84.6951 22.193H84.3645L84.9163 17.5002ZM122.746 8.05516H108.387V17.8855L104.908 17.6668V28.8791L108.387 28.6007V46.8272H122.746V28.6007L127.496 28.8791V17.6668L122.746 17.8855V8.05516ZM152.904 16.8366C148.099 16.7248 145.502 17.5524 142.961 21.42H142.628L142.961 17.4978H128.712V46.8248H142.961V35.5578C142.961 31.9115 144.838 29.7018 148.539 29.7018C150.361 29.7018 151.41 30.4201 152.901 31.305V16.8366H152.904ZM165.938 32.0233C165.938 29.8708 167.374 27.9917 169.639 27.9917C171.903 27.9917 173.449 29.6496 173.449 31.9139C173.449 34.1783 172.343 36.3332 169.639 36.3332C167.044 36.3332 165.938 34.3448 165.938 32.0233ZM173.009 46.8272H186.983V17.5002H173.009L173.452 20.98H173.121C171.021 18.1092 168.093 16.8391 164.561 16.8391C156.276 16.8391 151.802 24.9022 151.802 32.3042C151.802 39.4278 156.222 47.4909 164.173 47.4909C168.205 47.4909 170.524 45.7237 173.121 42.9622H173.452L173.009 46.8272ZM188.526 46.8272H202.776V2.03516H188.526V46.8272Z" fill="#004487"/>
<path d="M5.07056 61.7701H9.21894V58.0244H9.29599L11.1527 61.7701H16.0418L13.504 57.9772C13.2729 57.6367 13.0094 57.4527 12.7907 57.2812V57.1893C14.369 56.6623 15.05 55.9192 15.05 54.1569C15.05 51.2165 12.8205 50.1005 10.1908 50.1005H5.07056V61.7701ZM9.21645 53.287H9.54206C10.2703 53.287 10.9041 53.3963 10.9041 54.2936C10.9041 55.1611 10.2082 55.2704 9.51223 55.2704H9.21894V53.287H9.21645ZM16.258 61.7701H24.2267V58.5812H20.5307V57.4353H23.7942V54.403H20.5307V53.287H24.1049V50.098H16.2605V61.7701H16.258ZM24.5995 60.8878C25.9144 61.5539 27.617 61.9541 29.0884 61.9541C31.6112 61.9541 34.149 60.5771 34.149 57.7933C34.149 55.8098 32.8491 54.8528 31.0545 54.4502L30.0951 54.2315C29.7695 54.1544 29.2425 54.0923 29.2425 53.6598C29.2425 53.1801 29.7844 53.0409 30.1572 53.0409C31.0694 53.0409 31.8896 53.4286 32.6179 53.9233L33.7637 50.9356C32.6179 50.2397 31.395 49.9141 30.0652 49.9141C27.5275 49.9141 25.0047 51.4626 25.0047 54.2315C25.0047 56.0583 26.3966 57.0352 28.0519 57.326L28.9045 57.4801C29.2897 57.5596 29.849 57.6044 29.849 58.1313C29.849 58.6582 29.1829 58.8272 28.7653 58.8272C27.791 58.8272 26.8788 58.3475 26.1207 57.7585L25.9044 57.5894L24.5995 60.8878ZM34.1937 53.8934L36.5326 53.7841V61.7701H40.773V53.7841L43.1094 53.8934V50.1005H34.1937V53.8934ZM46.2984 60.3136H49.5022L49.89 61.7701H54.3789L50.2156 50.1005H45.5278L41.4739 61.7701H45.9603L46.2984 60.3136ZM47.0565 57.5447L47.8295 53.9854H47.9836C48.0631 54.48 48.1401 54.9896 48.2644 55.4842L48.7591 57.5422H47.0565V57.5447ZM60.6748 50.1005V56.6002C60.6748 57.5149 60.645 58.3202 59.514 58.3202C58.3856 58.3202 58.3533 57.5149 58.3533 56.6002V50.1005H54.1129V57.0028C54.1129 60.408 56.248 61.9566 59.514 61.9566C62.78 61.9566 64.9151 60.408 64.9151 57.0028V50.1005H60.6748ZM66.0137 61.7701H70.1596V58.0244H70.2367L72.0934 61.7701H76.9849L74.4497 57.9772C74.2185 57.6367 73.9551 57.4527 73.7363 57.2812V57.1893C75.3147 56.6623 75.9957 55.9192 75.9957 54.1569C75.9957 51.2165 73.7662 50.1005 71.1365 50.1005H66.0137V61.7701ZM70.1596 53.287H70.4852C71.2135 53.287 71.8473 53.3963 71.8473 54.2936C71.8473 55.1611 71.1514 55.2704 70.4554 55.2704H70.1621V53.287H70.1596ZM81.0389 60.3136H84.2428L84.6305 61.7701H89.1194L84.9561 50.1005H80.2684L76.2144 61.7701H80.7033L81.0389 60.3136ZM81.7995 57.5447L82.5725 53.9854H82.7266C82.8036 54.48 82.8807 54.9896 83.005 55.4842L83.4996 57.5422H81.7995V57.5447ZM89.4748 61.7701H93.5288V57.9772C93.5288 57.2042 93.4045 56.4461 93.2653 55.6408H93.3896L97.1179 61.7701H101.174V50.1005H97.1179V53.6001C97.1179 54.5894 97.3043 55.596 97.4733 56.5704H97.3491L93.5437 50.1005H89.4723V61.7701H89.4748ZM101.761 53.8934L104.097 53.7841V61.7701H108.338V53.7841L110.674 53.8934V50.1005H101.761V53.8934ZM115.131 61.7701H119.217V58.2556H121.384C123.751 58.2556 125.237 56.7717 125.237 54.3881C125.237 51.4949 123.226 50.1005 120.502 50.1005H115.131V61.7701ZM119.217 53.287H119.62C120.316 53.287 121.183 53.3342 121.183 54.2489C121.183 55.1909 120.378 55.3152 119.634 55.3152H119.217V53.287ZM125.933 61.7701H130.079V58.0244H130.156L132.013 61.7701H136.904L134.369 57.9772C134.135 57.6367 133.874 57.4527 133.655 57.2812V57.1893C135.234 56.6623 135.915 55.9192 135.915 54.1569C135.915 51.2165 133.685 50.1005 131.056 50.1005H125.933V61.7701ZM130.079 53.287H130.404C131.133 53.287 131.766 53.3963 131.766 54.2936C131.766 55.1611 131.071 55.2704 130.375 55.2704H130.079V53.287ZM143.066 49.9141C139.521 49.9141 136.611 52.2977 136.611 55.9639C136.611 59.7096 139.504 61.9516 143.066 61.9516C146.625 61.9516 149.518 59.7071 149.518 55.9639C149.518 52.3002 146.608 49.9141 143.066 49.9141ZM143.066 53.7518C144.41 53.7518 145.248 54.7882 145.248 56.026C145.248 57.3558 144.351 58.2705 143.066 58.2705C141.778 58.2705 140.883 57.3558 140.883 56.026C140.883 54.7882 141.719 53.7518 143.066 53.7518ZM150.276 61.7701H155.648C159.065 61.7701 161.513 59.5729 161.513 56.1056C161.513 51.8205 158.511 50.1005 154.596 50.1005H150.276V61.7701ZM154.517 53.7518H154.78C156.329 53.7518 157.273 54.4477 157.273 56.0882C157.273 57.6193 156.189 58.2705 154.78 58.2705H154.517V53.7518ZM168.615 50.1005V56.6002C168.615 57.5149 168.582 58.3202 167.454 58.3202C166.323 58.3202 166.293 57.5149 166.293 56.6002V50.1005H162.053V57.0028C162.053 60.408 164.188 61.9566 167.454 61.9566C170.72 61.9566 172.855 60.408 172.855 57.0028V50.1005H168.615ZM182.479 50.3938C181.582 50.0831 180.59 49.9141 179.633 49.9141C176.213 49.9141 173.536 52.6382 173.536 56.0434C173.536 59.3716 176.136 61.9541 179.464 61.9541C180.222 61.9541 181.801 61.8149 182.482 61.4893L182.606 57.1246C181.925 57.7908 181.152 58.2083 180.175 58.2083C178.907 58.2083 177.809 57.2166 177.809 55.9341C177.809 54.6664 178.845 53.6598 180.115 53.6598C181.075 53.6598 181.925 54.2016 182.606 54.8354L182.479 50.3938ZM182.991 53.8934L185.328 53.7841V61.7701H189.568V53.7841L191.907 53.8934V50.1005H182.994V53.8934H182.991ZM191.949 60.8878C193.264 61.5539 194.966 61.9541 196.438 61.9541C198.961 61.9541 201.499 60.5771 201.499 57.7933C201.499 55.8098 200.199 54.8528 198.404 54.4502L197.445 54.2315C197.119 54.1544 196.592 54.0923 196.592 53.6598C196.592 53.1801 197.134 53.0409 197.507 53.0409C198.421 53.0409 199.242 53.4286 199.967 53.9233L201.113 50.9356C199.967 50.2397 198.745 49.9141 197.415 49.9141C194.877 49.9141 192.354 51.4626 192.354 54.2315C192.354 56.0583 193.746 57.0352 195.404 57.326L196.257 57.4801C196.644 57.5596 197.201 57.6044 197.201 58.1313C197.201 58.6582 196.535 58.8272 196.117 58.8272C195.143 58.8272 194.228 58.3475 193.47 57.7585L193.254 57.5894L191.949 60.8878Z" fill="#004487"/>
<path d="M207.349 7.57542C206.696 6.92172 206.37 6.12883 206.37 5.19427C206.37 4.25473 206.696 3.45687 207.347 2.80069C207.998 2.1445 208.794 1.81641 209.733 1.81641C210.668 1.81641 211.461 2.1445 212.114 2.80069C212.768 3.45687 213.094 4.25473 213.094 5.19427C213.094 6.12138 212.768 6.91427 212.114 7.57046C211.461 8.22664 210.668 8.55473 209.733 8.55473C208.798 8.55722 208.003 8.22912 207.349 7.57542ZM211.56 7.03358C212.05 6.54889 212.293 5.93745 212.293 5.19675C212.293 4.4486 212.05 3.83219 211.56 3.34751C211.07 2.86034 210.461 2.61675 209.731 2.61675C208.995 2.61675 208.383 2.85785 207.896 3.34253C207.409 3.82722 207.165 4.44363 207.165 5.19675C207.165 5.93745 207.409 6.55138 207.896 7.03358C208.383 7.51826 208.995 7.75936 209.731 7.75936C210.461 7.75936 211.07 7.51577 211.56 7.03358ZM211.344 6.90184H210.496L209.716 5.42542H209.171V6.90184H208.391V3.40467H210.088C210.546 3.40467 210.886 3.47675 211.11 3.61595C211.334 3.75762 211.446 4.04346 211.446 4.47346C211.446 4.78912 211.366 5.02277 211.207 5.16941C211.048 5.31606 210.812 5.40057 210.494 5.42294L211.344 6.90184ZM210.103 4.89849C210.32 4.89849 210.474 4.86369 210.571 4.79161C210.668 4.72201 210.715 4.58034 210.715 4.37155C210.715 4.28704 210.692 4.21993 210.645 4.16774C210.601 4.11554 210.531 4.08074 210.436 4.06086C210.342 4.04097 210.265 4.02855 210.198 4.02358C210.133 4.0186 210.041 4.01612 209.922 4.01612H209.166V4.89849H210.103Z" fill="#004487"/>
</svg>
